<svg width="636" height="644" viewBox="0 0 636 644" fill="none" xmlns="http://www.w3.org/2000/svg">
<path fill-rule="evenodd" clip-rule="evenodd" d="M343.389 319.236V448.224C343.389 460.507 333.558 470.463 321.433 470.463H202.876C164.444 470.463 139.206 507.158 139.206 522.725V574.987C139.206 584.813 131.339 592.779 121.641 592.779H75.5351C51.0813 592.779 20.7779 617.315 20.7779 643.879C20.7662 643.879 0.774904 623.534 0.770996 623.534C25.8538 623.534 53.5783 592.316 53.5783 567.203V521.613C53.5783 511.787 61.4403 503.821 71.143 503.821H121.641C122.461 503.821 123.27 503.879 124.064 503.99C149.576 504.318 174.331 459.842 174.331 440.44V319.236C174.331 306.954 184.162 296.997 196.287 296.997H321.433C348.225 296.997 375.677 267.809 375.677 240.666V195.076C375.677 185.251 383.54 177.284 393.242 177.284H443.74C444.561 177.284 445.369 177.342 446.163 177.453C471.675 177.781 496.43 133.305 496.43 113.903V23.2171C496.43 10.9343 506.261 0.977905 518.388 0.977905H613.521C625.646 0.977905 635.478 10.9343 635.478 23.2171V121.687C635.478 133.97 625.646 143.926 613.521 143.926H524.975C486.544 143.926 461.305 180.621 461.305 196.188V248.45C461.305 258.276 453.439 266.242 443.74 266.242H397.635C370.132 266.242 343.389 291.47 343.389 319.236Z" fill="url(#paint0_linear_34_46)"/>
<defs>
<linearGradient id="paint0_linear_34_46" x1="619.961" y1="11.6591" x2="-366.772" y2="942.835" gradientUnits="userSpaceOnUse">
<stop offset="0.526042" stop-color="#44EB99"/>
<stop offset="0.883235" stop-color="#861BE3"/>
</linearGradient>
</defs>
</svg>
