<svg width="349" height="349" viewBox="0 0 349 349" fill="none" xmlns="http://www.w3.org/2000/svg">
<rect width="349" height="349" rx="70" fill="url(#paint0_linear_1493_765)"/>
<path d="M98.973 264.166H33L33 83.8338H102.881C138.741 83.8338 157.13 98.7756 157.13 128.659C157.13 149.269 149.774 162.922 133.224 170.136C152.993 174 161.958 188.169 161.958 211.612C161.958 248.967 138.051 264.166 98.973 264.166ZM61.7339 234.54H100.812C122.88 234.54 132.994 226.554 132.994 209.294C132.994 192.033 121.5 185.335 101.272 185.335H61.7339L61.7339 234.54ZM61.7339 160.089H98.7431C116.903 160.089 128.396 151.072 128.396 135.615C128.396 121.188 119.891 113.46 99.4327 113.46H61.7339V160.089Z" fill="black"/>
<path d="M316 204.657V244.33C307.955 255.15 286.806 267 258.992 267C206.581 266.742 171.641 231.964 171.641 173.742C171.641 119.385 206.122 81 259.452 81C284.738 81 303.357 89.759 312.782 97.2299V142.055C303.127 126.083 283.588 110.626 259.452 110.626C224.281 110.626 202.674 136.13 202.674 174C202.674 209.036 221.753 236.601 258.762 237.374C286.806 237.374 306.575 222.947 316 204.657Z" fill="black"/>
<defs>
<linearGradient id="paint0_linear_1493_765" x1="356" y1="342" x2="-314" y2="-336" gradientUnits="userSpaceOnUse">
<stop stop-color="#03F9C2"/>
<stop offset="1" stop-color="#8432DC"/>
</linearGradient>
</defs>
</svg>
