<svg width="469" height="276" viewBox="0 0 469 276" fill="none" xmlns="http://www.w3.org/2000/svg">
<path d="M109.71 271H0.650269V4.99994H116.17C175.45 4.99994 205.85 27.04 205.85 71.1199C205.85 101.52 193.69 121.66 166.33 132.3C199.01 138 213.83 158.9 213.83 193.48C213.83 248.58 174.31 271 109.71 271ZM48.1503 227.3H112.75C149.23 227.3 165.95 215.52 165.95 190.06C165.95 164.6 146.95 154.72 113.51 154.72H48.1503V227.3ZM48.1503 117.48H109.33C139.35 117.48 158.35 104.18 158.35 81.38C158.35 60.1 144.29 48.6999 110.47 48.6999H48.1503V117.48Z" fill="#44EB99"/>
<path d="M468.478 183.22V241.74C455.178 257.7 420.218 275.18 374.238 275.18C287.598 274.8 229.838 223.5 229.838 137.62C229.838 57.4399 286.838 0.819946 374.998 0.819946C416.798 0.819946 447.578 13.7399 463.158 24.76V90.8799C447.198 67.32 414.898 44.52 374.998 44.52C316.858 44.52 281.138 82.14 281.138 138C281.138 189.68 312.678 230.34 373.858 231.48C420.218 231.48 452.898 210.2 468.478 183.22Z" fill="#861BE3"/>
</svg>
