<svg width="431" height="501" viewBox="0 0 431 501" fill="none" xmlns="http://www.w3.org/2000/svg">
<path fill-rule="evenodd" clip-rule="evenodd" d="M231.153 271.08C231.153 271.08 229.824 271.851 229.016 272.913C228.291 273.866 227.985 275.053 229.434 276.126C230.678 277.047 233.212 277.885 237.879 278.42C239.104 278.56 240.292 278.689 241.447 278.808C258.765 280.595 268.832 280.077 289.058 276.259L286.52 280.813L283.722 285.835L281.825 289.24C239.042 297.649 198.475 280.192 231.153 271.08Z" fill="#861BE3"/>
<path fill-rule="evenodd" clip-rule="evenodd" d="M302.096 306.278L302.195 306.268L301.958 306.678L302.096 306.278ZM271.207 308.328C245.945 309.199 219.385 308.289 202.355 304.959V312.245C225.885 315.046 248.051 315.692 267.55 314.923C268.759 312.739 269.979 310.541 271.207 308.328ZM202.355 291.609C202.782 291.502 203.17 291.411 203.51 291.338C208.938 290.164 212.041 290.383 212.041 290.383C210.136 289.044 206.583 288.735 202.355 289.149V291.609Z" fill="#861BE3"/>
<path fill-rule="evenodd" clip-rule="evenodd" d="M274.096 222.178C272.894 223.515 271.977 224.266 271.977 224.266C271.977 224.266 273.49 223.486 275.684 222.058C275.155 222.099 274.626 222.139 274.096 222.178Z" fill="#280844"/>
<path fill-rule="evenodd" clip-rule="evenodd" d="M316.372 225.12C316.466 225.079 316.516 225.057 316.516 225.057C316.516 225.057 316.453 225.069 316.329 225.09L316.372 225.12Z" fill="#280844"/>
<path fill-rule="evenodd" clip-rule="evenodd" d="M234.356 159.454C234.52 159.186 234.691 158.919 234.87 158.652L234.356 159.454Z" fill="#280844"/>
<path fill-rule="evenodd" clip-rule="evenodd" d="M177.475 58.6127L177.589 58.547L177.867 58.3851L177.888 58.4203C177.751 58.4848 177.614 58.5489 177.475 58.6127Z" fill="#280844"/>
<path fill-rule="evenodd" clip-rule="evenodd" d="M177.589 58.547L177.475 58.6127C177.614 58.5489 177.751 58.4848 177.888 58.4203L177.867 58.3851L177.589 58.547Z" fill="#861BE3"/>
<path fill-rule="evenodd" clip-rule="evenodd" d="M302.195 306.268L302.096 306.278L301.958 306.678L302.195 306.268ZM313.106 271.095L313.328 270.711L312.885 270.998L313.106 271.095ZM250.09 426.602L250.2 426.593L250.015 426.312L250.09 426.602ZM219.981 400.384C220.238 399.673 220.488 398.958 220.732 398.239C220.23 398.809 219.736 399.383 219.248 399.962C215.601 404.289 212.35 408.845 209.494 413.629C202.747 412.352 195.903 411.554 188.964 411.236C188.211 411.201 187.457 411.173 186.702 411.15C187.408 411.418 188.116 411.681 188.825 411.938C195.814 414.476 202.913 416.465 210.123 417.905L211.56 418.192L212.291 416.925C215.321 411.681 217.885 406.167 219.981 400.384Z" fill="url(#paint0_linear_1375_1012)"/>
<path fill-rule="evenodd" clip-rule="evenodd" d="M313.106 271.095L313.328 270.711L312.885 270.998L313.106 271.095ZM250.09 426.602L250.2 426.593L250.015 426.312L250.09 426.602Z" fill="#280844"/>
<path fill-rule="evenodd" clip-rule="evenodd" d="M302.195 306.268L302.096 306.278L301.958 306.678L302.195 306.268Z" fill="#280844"/>
<path d="M220.732 398.239C220.488 398.958 220.238 399.673 219.981 400.384C217.885 406.167 215.321 411.681 212.291 416.925L211.56 418.192L210.123 417.905C202.913 416.465 195.814 414.476 188.825 411.938C188.116 411.681 187.408 411.418 186.702 411.15C187.457 411.173 188.211 411.201 188.964 411.236C195.903 411.554 202.747 412.352 209.494 413.629C212.35 408.845 215.601 404.289 219.248 399.962C219.736 399.383 220.23 398.809 220.732 398.239Z" fill="#280844"/>
<path fill-rule="evenodd" clip-rule="evenodd" d="M302.195 306.268L302.096 306.278L301.958 306.678L302.195 306.268Z" fill="#280844"/>
<path fill-rule="evenodd" clip-rule="evenodd" d="M313.106 271.095L313.328 270.711L312.885 270.998L313.106 271.095Z" fill="#44EB99"/>
<path fill-rule="evenodd" clip-rule="evenodd" d="M360.224 200.274C354.835 195.517 350 191.684 345.667 188.622C346.93 187.22 349.042 186.84 350.743 187.821L372.775 200.52C374.584 201.563 375.292 203.78 374.49 205.651C370.36 203.88 365.631 202.082 360.224 200.274Z" fill="#861BE3"/>
<path fill-rule="evenodd" clip-rule="evenodd" d="M373.01 191.24L406.158 120.781C405.581 120.526 405.013 120.238 404.454 119.916C403.895 119.594 403.36 119.246 402.85 118.874L358.308 182.766L373.01 191.24Z" fill="#861BE3"/>
<path fill-rule="evenodd" clip-rule="evenodd" d="M64.351 14.093C65.8146 12.5778 67.7151 11.4082 69.9954 10.7981L78.3207 8.57114C82.5482 7.44038 87.0593 8.64665 90.1541 11.7364L90.8253 12.4066L98.8667 20.4356L102.95 24.5123L107.078 28.634L115.61 37.1531C117.714 39.2539 118.851 41.8237 119.134 44.4339C116.451 44.572 113.704 44.6805 110.902 44.7573C110.727 44.0948 110.378 43.4598 109.836 42.9184L102.108 35.2035L84.6734 39.8672L89.5281 44.7142C85.3391 44.5821 81.2784 44.3788 77.3755 44.112L64.5041 31.2605C64.2739 31.0307 64.0553 30.7952 63.8481 30.5548C62.831 29.3741 62.0893 28.0716 61.6054 26.7139C61.1388 25.4047 60.9117 24.0441 60.9083 22.6916C60.9002 19.5273 62.116 16.4071 64.351 14.093ZM84.3783 17.503L91.5119 24.6243L95.4393 28.5451L78.0057 33.2101L70.565 25.7813L70.2785 25.4952C68.0558 23.276 69.0726 19.4859 72.1089 18.6736L80.4343 16.4466C81.8434 16.0698 83.3468 16.4732 84.3783 17.503Z" fill="#861BE3"/>
<path fill-rule="evenodd" clip-rule="evenodd" d="M24.369 58.5914C24.0431 58.4405 23.7226 58.2875 23.4077 58.1323C22.5403 57.705 21.6457 57.2283 20.7508 56.6942L9.62673 75.9323C8.67097 77.5851 8.16717 79.4599 8.16717 81.3684V352.032C8.16721 358.114 12.5119 362.602 17.7833 365.779C23.177 369.029 30.5996 371.59 39.1078 373.584C43.3214 374.571 47.8688 375.435 52.6652 376.175C52.5513 374.776 52.4624 373.386 52.3987 372.006C52.3343 370.612 52.2955 369.229 52.2824 367.858C48.2858 367.208 44.4978 366.47 40.9741 365.645C32.8086 363.731 26.3351 361.409 22.0024 358.798C17.5478 356.113 16.3344 353.764 16.3343 352.032V81.3684C16.3343 80.8914 16.4598 80.4225 16.6986 80.0093L28.1697 60.1727C26.8369 59.6728 25.5667 59.1462 24.369 58.5914Z" fill="#861BE3"/>
<path fill-rule="evenodd" clip-rule="evenodd" d="M194.188 311.193V302.934V294.321V290.62V282.24V240.822V231.879V226.738V217.444V81.3684C194.188 79.46 193.686 77.585 192.73 75.9323L181.485 56.4857L181.374 56.295C180.186 57.0227 179.006 57.7223 177.867 58.3851L177.888 58.4203C177.751 58.4848 177.614 58.5489 177.475 58.6127C176.406 59.1065 175.279 59.578 174.102 60.0282L185.657 80.0093C185.896 80.4225 186.021 80.8914 186.021 81.3684V223.482V235.301V284.528V293.195V309.978V318.232V328.865L190.105 331.045L194.188 333.225V319.424V311.193Z" fill="#861BE3"/>
<path d="M263.012 323.128C241.13 323.529 220.397 322.148 205.293 319.663C205.293 319.663 206.01 320.255 208.245 321.103C212.306 322.644 221.376 325.029 240.258 326.237C246.584 326.641 253.392 326.899 260.422 326.983L261.772 325.375C262.165 324.663 262.559 323.949 262.954 323.233L263.012 323.128Z" fill="#861BE3"/>
<path fill-rule="evenodd" clip-rule="evenodd" d="M302.68 244.633C302.683 244.636 302.686 244.639 302.689 244.642L302.699 244.65C302.703 244.655 302.706 244.66 302.711 244.665L302.699 244.65L302.689 244.642L302.68 244.633Z" fill="#280844"/>
<path d="M223.757 245.39C224.528 244.585 225.237 244.061 225.237 244.061C224.022 244.464 222.897 244.868 221.859 245.272C188.806 258.164 244.355 271.784 298.786 258.785C299.687 257.163 300.592 255.536 301.5 253.902C298.592 252.106 296.902 250.396 296.902 250.396C280.264 253.593 267.711 254.871 256 254.957C250.616 254.996 245.41 254.784 240.067 254.39L239.797 254.37C238.116 254.244 236.422 254.101 234.704 253.942L234.667 253.938C233.401 253.821 232.122 253.695 230.826 253.562C218.824 252.323 221.546 247.699 223.757 245.39Z" fill="#861BE3"/>
<path d="M275.111 198.228C284.097 208.551 277.767 218.096 274.096 222.178C272.894 223.515 271.977 224.266 271.977 224.266C271.977 224.266 273.49 223.486 275.684 222.058C283.308 217.095 299.158 204.295 288.356 189.123C287.798 188.34 287.246 187.575 286.704 186.823C274.626 170.083 267.717 160.507 319.339 130.632C319.339 130.632 234.673 151.733 275.111 198.228Z" fill="#44EB99"/>
<path fill-rule="evenodd" clip-rule="evenodd" d="M267.108 230.814C248.231 231.924 229.876 231.937 219.781 230.588C213.771 229.787 210.931 228.696 210.207 227.468C209.783 226.75 210.084 225.985 210.897 225.205C215.407 220.875 235.698 216.066 235.698 216.066C235.698 216.066 221.188 215.09 202.355 222.766V234.64C207.167 235.681 213.452 236.486 220.655 237.014C223.666 237.236 226.838 237.409 230.13 237.531C253.978 238.415 284.131 236.626 305.212 231.094C309.542 228.143 315.383 225.551 316.372 225.12L316.329 225.09C314.333 225.44 296.751 228.478 279.236 229.952C278.935 229.977 278.634 230.002 278.332 230.027C277.255 230.115 276.173 230.2 275.09 230.281C272.436 230.479 269.762 230.658 267.108 230.814Z" fill="#861BE3"/>
<path fill-rule="evenodd" clip-rule="evenodd" d="M234.356 159.454C234.52 159.186 234.691 158.919 234.87 158.652L234.356 159.454Z" fill="#44EB99"/>
<path d="M234.356 159.454L234.87 158.652C240.505 150.209 249.459 143.213 258.517 136.135C276.685 121.94 295.275 107.415 288.356 80.227C288.356 80.227 314.053 105.878 263.984 145.322C232.936 169.789 244.43 186.123 255.464 201.803C258.699 206.401 261.895 210.942 263.967 215.615C249.319 202.427 237.108 190.226 232.826 178.709C230.364 172.087 230.523 165.691 234.35 159.463L234.356 159.454Z" fill="#44EB99"/>
<path fill-rule="evenodd" clip-rule="evenodd" d="M301.976 244.007C301.99 244.018 302.004 244.029 302.018 244.04C302.048 244.064 302.079 244.089 302.109 244.114C302.129 244.13 302.148 244.146 302.168 244.163C302.344 244.311 302.515 244.468 302.68 244.633C302.683 244.636 302.686 244.639 302.689 244.642L302.699 244.65C302.703 244.655 302.706 244.66 302.711 244.665C302.714 244.668 302.718 244.671 302.723 244.675C302.727 244.678 302.731 244.682 302.735 244.685C302.739 244.689 302.744 244.693 302.747 244.696L302.735 244.685L302.723 244.675L302.711 244.665L302.699 244.65C302.7 244.652 302.709 244.663 302.711 244.665M302.68 244.633C302.515 244.468 302.344 244.311 302.168 244.163C302.148 244.146 302.129 244.13 302.109 244.114C302.079 244.089 302.048 244.064 302.018 244.04C302.004 244.029 301.99 244.018 301.976 244.007" fill="#280844"/>
<path d="M144.212 340.913C147.885 346.778 151.301 352.758 154.112 358.86C155.283 361.399 156.348 363.96 157.284 366.542C157.336 366.685 157.388 366.829 157.439 366.972C157.853 368.117 158.238 369.271 158.596 370.435C158.997 371.735 159.366 373.047 159.709 374.368C160.388 376.987 160.964 379.643 161.487 382.327C162.106 385.509 162.649 388.729 163.195 391.967C163.533 393.969 163.871 395.979 164.23 397.991C164.492 399.486 164.75 400.903 165.03 402.412L166.005 408.973L172.003 405.743C173.614 404.8 175.217 403.845 176.813 402.892C177.041 402.756 177.273 402.618 177.5 402.482C183.179 399.093 188.808 395.733 194.667 392.874C203.804 388.335 213.585 385.07 224.024 383.517C226.313 383.158 228.619 382.859 230.941 382.61C228.611 382.45 226.284 382.316 223.947 382.235C213.393 381.764 202.326 382.958 192.078 386.59C185.579 388.837 179.329 391.507 173.273 394.492C172.383 389.768 171.299 385.012 169.912 380.309C169.145 377.707 168.285 375.12 167.313 372.564C166.827 371.286 166.314 370.016 165.77 368.755C165.224 367.491 164.649 366.236 164.04 364.992C163.924 364.754 163.806 364.516 163.687 364.278C162.534 361.963 161.246 359.752 159.855 357.627C155.63 351.172 150.458 345.504 145.286 340.081C144.03 338.764 142.792 337.487 141.534 336.192C141.166 335.813 140.793 335.428 140.421 335.044C141.731 337.01 142.966 338.929 144.212 340.913Z" fill="#280844"/>
<path fill-rule="evenodd" clip-rule="evenodd" d="M149.886 372.018C149.442 370.701 148.982 369.397 148.505 368.107C147.524 365.455 146.474 362.861 145.36 360.334C139.645 347.366 132.251 336.14 123.924 327.734C118.946 322.709 113.1 318.218 106.718 315.222L116.36 309.223H131.911L140.228 313.663L140.01 313.876L173.082 353.39L178.48 359.84L181.156 363.037L181.527 363.48L184.259 364.923L185.705 365.066L196.847 366.164L232.657 369.695L233.703 401.559L250.015 426.312L250.09 426.602L220.564 428.87L184.866 441.409L163.437 431.535L162.899 437.269C162.515 441.35 160.199 446.294 157.771 450.635C157.012 451.992 156.356 453.098 155.76 454.103L155.755 454.112C155.374 454.755 155.017 455.356 154.673 455.956C154.376 456.474 154.042 457.073 153.785 457.634L145.516 455.422C150.631 448.653 153.781 440.174 155.427 431.746C158.578 415.614 157.203 395.939 151.239 376.249C151.208 376.148 151.178 376.046 151.147 375.945C150.743 374.624 150.323 373.315 149.886 372.018ZM167.313 372.564C166.827 371.286 166.314 370.016 165.77 368.755C165.224 367.491 164.649 366.236 164.04 364.992C163.924 364.754 163.806 364.516 163.687 364.278C162.534 361.963 161.246 359.752 159.855 357.627C155.63 351.172 150.458 345.504 145.286 340.081C144.03 338.764 142.792 337.487 141.534 336.192C141.166 335.813 140.793 335.428 140.421 335.044C141.731 337.01 142.966 338.929 144.212 340.913C147.885 346.778 151.301 352.758 154.112 358.86C155.283 361.399 156.348 363.96 157.284 366.542C157.336 366.685 157.388 366.829 157.439 366.972C157.853 368.117 158.238 369.271 158.596 370.435C158.997 371.735 159.366 373.047 159.709 374.368C160.388 376.987 160.964 379.643 161.487 382.327C162.106 385.509 162.649 388.729 163.195 391.967C163.533 393.969 163.871 395.979 164.23 397.991C164.492 399.486 164.75 400.903 165.03 402.412L166.005 408.973L172.003 405.743C173.614 404.8 175.217 403.845 176.813 402.892L177.5 402.482C183.179 399.093 188.808 395.733 194.667 392.874C203.804 388.335 213.585 385.07 224.024 383.517C226.313 383.158 228.619 382.859 230.941 382.61C228.611 382.45 226.284 382.316 223.947 382.235C213.393 381.764 202.326 382.958 192.078 386.59C185.579 388.837 179.329 391.507 173.273 394.492C172.383 389.768 171.299 385.012 169.912 380.309C169.145 377.707 168.285 375.12 167.313 372.564ZM220.732 398.239C220.488 398.958 220.238 399.673 219.981 400.384C217.885 406.167 215.321 411.681 212.291 416.925L211.56 418.192L210.123 417.905C202.913 416.465 195.814 414.476 188.825 411.938C188.116 411.681 187.408 411.418 186.702 411.15C187.457 411.173 188.211 411.201 188.964 411.236C195.903 411.554 202.747 412.352 209.494 413.629C212.35 408.845 215.601 404.289 219.248 399.962C219.736 399.383 220.23 398.809 220.732 398.239Z" fill="url(#paint1_linear_1375_1012)"/>
<path d="M204.706 454.334L204.67 454.417C202.322 459.753 200.295 464.649 198.702 468.927L207.536 453.65L207.586 453.563L204.706 454.334Z" fill="#44EB99"/>
<path d="M218.748 450.577L218.698 450.664L205.778 473.006C210.849 466.885 216.891 458.693 223.376 449.413L223.439 449.322L218.748 450.577Z" fill="#861BE3"/>
<path d="M103.119 381.393L104.512 381.02L107.794 384.297C109.948 386.448 109.059 390.074 106.238 391.035C106.148 391.066 106.057 391.094 105.963 391.119L103.721 391.719C103.219 391.853 102.705 391.888 102.204 391.831C101.3 391.729 100.441 391.326 99.7766 390.663L93.1594 384.057L99.1698 382.449L103.119 381.393Z" fill="#280844"/>
<path d="M84.8898 338.297C82.4356 340.599 79.8285 344.907 78.1994 352.432C79.0336 352.088 79.9052 351.792 80.8129 351.549L83.0541 350.949L83.7161 350.785C85.388 350.396 87.0814 350.224 88.7587 350.259C90.2752 350.29 91.7785 350.49 93.2412 350.851C94.9474 351.273 96.5982 351.913 98.1497 352.762C99.6319 353.572 101.023 354.573 102.286 355.752L102.777 356.226L117.61 371.034L119.344 372.765C120.04 373.46 120.672 374.186 121.243 374.936C122.196 376.191 122.976 377.516 123.589 378.885C126.513 385.408 125.666 392.936 121.804 398.655C122.996 399.416 123.955 400.587 124.609 402.275C126.817 407.974 126.118 418.838 121.168 423.93C120.249 424.875 119.183 425.622 117.962 426.099C117.848 426.143 117.734 426.185 117.619 426.224C116.305 426.674 114.902 426.793 113.465 426.648C106.398 425.936 98.5158 418.847 96.3723 413.314C95.4274 410.875 95.4927 408.869 96.3288 407.159C93.3239 406.181 90.538 404.503 88.2264 402.195L80.8433 394.824C81.0721 395.642 81.311 396.462 81.5604 397.286C86.605 413.941 94.5959 427.353 102.843 435.678C110.134 443.038 115.816 444.859 119.302 444.697C119.97 444.665 120.557 444.561 121.06 444.41C121.701 444.216 122.415 443.881 123.164 443.366C124.203 442.652 125.311 441.591 126.392 440.082C128.326 437.379 130.172 433.236 131.378 427.063C133.622 415.57 132.831 399.985 127.786 383.33C127.311 381.761 126.81 380.221 126.285 378.711C125.814 377.357 125.323 376.027 124.815 374.723C124.288 373.368 123.741 372.04 123.177 370.741C118.465 359.888 112.553 351.044 106.504 344.937C100.884 339.264 96.2202 336.882 92.7809 336.162C91.014 335.793 89.5702 335.862 88.4861 336.149C88.4184 336.167 88.3521 336.186 88.2872 336.205C87.2839 336.508 86.1057 337.156 84.8898 338.297Z" fill="#861BE3"/>
<path fill-rule="evenodd" clip-rule="evenodd" d="M65.7361 369.636C65.6239 370.998 65.6469 372.374 65.8111 373.743C65.9808 375.158 66.3014 376.565 66.7796 377.938C67.5033 380.017 68.5879 382.021 70.0563 383.863C70.8993 388.999 72.1205 394.289 73.7428 399.646C79.0937 417.313 87.6793 431.966 97.0361 441.412C105.886 450.346 114.67 453.961 121.858 452.598C122.389 452.497 122.911 452.37 123.423 452.215C124.211 451.977 124.981 451.674 125.732 451.307C126.966 450.704 128.148 449.927 129.27 448.979C133.928 445.044 137.529 438.171 139.394 428.624C141.941 415.584 140.955 398.637 135.604 380.969C135.304 379.979 134.993 378.997 134.673 378.026C134.232 376.685 133.771 375.362 133.294 374.06C132.802 372.72 132.292 371.401 131.765 370.104C126.558 357.291 119.673 346.634 112.31 339.202C104.49 331.307 96.7198 327.566 90.0582 327.744C88.6437 327.782 87.2793 327.996 85.9748 328.385L85.9232 328.4C84.644 328.787 83.4097 329.345 82.2296 330.072C76.5315 333.581 72.0953 341.019 69.9524 351.99C69.4408 354.61 69.0717 357.387 68.852 360.296C67.0752 363.113 66.0081 366.332 65.7361 369.636ZM76.4108 378.734C76.7225 379.132 77.0638 379.517 77.4352 379.888L77.759 380.211L94.0008 396.429C96.8419 399.265 100.877 400.515 104.79 399.826C105.139 399.765 105.488 399.688 105.834 399.595L108.077 398.995C108.304 398.935 108.528 398.868 108.748 398.796C110.126 398.346 111.353 397.686 112.415 396.868C117.71 392.79 118.917 384.787 114.3 379.326C114.07 379.055 113.826 378.79 113.568 378.532L110.394 375.363L106.387 371.362L103.106 368.085L97.0024 361.991C96.9263 361.915 96.8494 361.84 96.7716 361.767C95.2731 360.347 93.4661 359.353 91.5313 358.831C89.4822 358.279 87.2899 358.259 85.169 358.826L82.9265 359.426C80.4205 360.096 78.373 361.443 76.8603 363.181C75.1042 365.199 74.0688 367.745 73.8733 370.375C73.7714 371.746 73.8978 373.14 74.2695 374.494C74.6786 375.984 75.3849 377.425 76.4108 378.734ZM78.1994 352.432C79.8285 344.907 82.4356 340.599 84.8898 338.297C86.1057 337.156 87.2839 336.508 88.2872 336.205C88.3521 336.186 88.4184 336.167 88.4861 336.149C89.5702 335.862 91.014 335.793 92.7809 336.162C96.2202 336.882 100.884 339.264 106.504 344.937C112.553 351.044 118.465 359.888 123.177 370.741C123.741 372.04 124.288 373.368 124.815 374.723C125.323 376.027 125.814 377.357 126.285 378.711C126.81 380.221 127.311 381.761 127.786 383.33C132.831 399.985 133.622 415.57 131.378 427.063C130.172 433.236 128.326 437.379 126.392 440.082C125.311 441.591 124.203 442.652 123.164 443.366C122.415 443.881 121.701 444.216 121.06 444.41C120.557 444.561 119.97 444.665 119.302 444.697C115.816 444.859 110.134 443.038 102.843 435.678C94.5959 427.353 86.605 413.941 81.5604 397.286C81.311 396.462 81.0721 395.642 80.8433 394.824L88.2264 402.195C90.538 404.503 93.3239 406.181 96.3288 407.159C95.4927 408.869 95.4274 410.875 96.3723 413.314C98.5158 418.847 106.398 425.936 113.465 426.648C114.902 426.793 116.305 426.674 117.619 426.224C117.734 426.185 117.848 426.143 117.962 426.099C119.183 425.622 120.249 424.875 121.168 423.93C126.118 418.838 126.817 407.974 124.609 402.275C123.955 400.587 122.996 399.416 121.804 398.655C125.666 392.936 126.513 385.408 123.589 378.885C122.976 377.516 122.196 376.191 121.243 374.936C120.672 374.186 120.04 373.46 119.344 372.765L117.61 371.034L102.777 356.226L102.286 355.752C101.023 354.573 99.6319 353.572 98.1497 352.762C96.5982 351.913 94.9474 351.273 93.2412 350.851C91.7785 350.49 90.2752 350.29 88.7587 350.259C87.0814 350.224 85.388 350.396 83.7161 350.785L83.0541 350.949L80.8129 351.549C79.9052 351.792 79.0336 352.088 78.1994 352.432Z" fill="#280844"/>
<path fill-rule="evenodd" clip-rule="evenodd" d="M136.803 453.091C142.135 447.461 145.625 439.325 147.41 430.184C150.259 415.599 149.079 397.288 143.421 378.609C143.27 378.109 143.116 377.611 142.959 377.114C142.54 375.784 142.102 374.468 141.648 373.168C141.184 371.841 140.702 370.53 140.203 369.236C139.167 366.548 138.058 363.936 136.885 361.407C131.677 350.184 125.191 340.608 118.117 333.468C111.975 327.268 105.078 322.628 98.015 320.637C96.0027 320.07 93.9771 319.718 91.9517 319.606C89.1415 319.451 86.3319 319.758 83.5593 320.595C82.8326 320.815 82.1241 321.066 81.4335 321.347C70.9235 325.63 64.5718 336.935 61.9361 350.43C61.2935 353.72 60.8559 357.2 60.6285 360.831C60.4621 363.488 60.4083 366.226 60.469 369.03C60.4985 370.392 60.555 371.769 60.6387 373.16C60.7212 374.529 60.8301 375.912 60.9656 377.306C61.2316 380.044 61.6003 382.827 62.0734 385.643C62.9747 391.008 64.2548 396.491 65.9253 402.006C71.5825 420.684 80.7627 436.58 91.2291 447.146C101.549 457.564 114.002 463.578 125.787 460.02C126.573 459.783 127.337 459.509 128.08 459.2C129.891 458.445 131.578 457.482 133.143 456.333C134.448 455.376 135.667 454.29 136.803 453.091ZM65.8111 373.743C65.6469 372.374 65.6239 370.998 65.7361 369.636C66.0081 366.332 67.0752 363.113 68.852 360.296C69.0717 357.387 69.4408 354.61 69.9524 351.99C72.0953 341.019 76.5315 333.581 82.2296 330.072C83.4097 329.345 84.644 328.787 85.9232 328.4L85.9748 328.385C87.2793 327.996 88.6437 327.782 90.0582 327.744C96.7198 327.566 104.49 331.307 112.31 339.202C119.673 346.634 126.558 357.291 131.765 370.104C132.292 371.401 132.802 372.72 133.294 374.06C133.771 375.362 134.232 376.685 134.673 378.026C134.993 378.997 135.304 379.979 135.604 380.969C140.955 398.637 141.941 415.584 139.394 428.624C137.529 438.171 133.928 445.044 129.27 448.979C128.148 449.927 126.966 450.704 125.732 451.307C124.981 451.674 124.211 451.977 123.423 452.215C122.911 452.37 122.389 452.497 121.858 452.598C114.67 453.961 105.886 450.346 97.0361 441.412C87.6793 431.966 79.0937 417.313 73.7428 399.646C72.1205 394.289 70.8993 388.999 70.0563 383.863C68.5879 382.021 67.5033 380.017 66.7796 377.938C66.3014 376.565 65.9808 375.158 65.8111 373.743Z" fill="#861BE3"/>
<path d="M93.9437 375.406L96.6572 374.68L97.8425 374.363L95.9404 372.464L94.8186 371.344L91.2266 367.758C90.1951 366.728 88.6917 366.325 87.2826 366.701L85.0401 367.301C83.2532 367.779 82.1657 369.289 82.0263 370.902C81.9289 372.03 82.295 373.21 83.2096 374.123L84.1786 375.09L86.4916 377.4L93.9437 375.406Z" fill="#280844"/>
<path d="M35.1223 62.4069C37.6659 63.1106 40.341 63.7461 43.0998 64.3209C52.1416 66.2049 63.0347 67.628 75.0457 68.4724C83.237 69.0482 91.9481 69.3549 100.947 69.3549C109.257 69.3549 117.321 69.0934 124.958 68.5998C137.717 67.7753 149.28 66.3032 158.793 64.3209C160.153 64.0376 161.493 63.7396 162.806 63.4259C164.689 62.9759 166.519 62.4936 168.279 61.9765L178.717 82.2656C178.477 82.5054 178.189 82.741 177.854 82.9723C161.939 93.9736 41.4225 95.2877 24.5015 82.9932C24.1747 82.7557 23.8866 82.5132 23.6386 82.2656L35.1223 62.4069Z" fill="#861BE3"/>
<path d="M84.3783 17.503L91.5119 24.6243L95.4393 28.5451L78.0057 33.2101L70.565 25.7813L70.2785 25.4952C68.0558 23.276 69.0726 19.4859 72.1089 18.6736L80.4343 16.4466C81.8434 16.0698 83.3468 16.4732 84.3783 17.503Z" fill="#280844"/>
<path fill-rule="evenodd" clip-rule="evenodd" d="M325.134 302.862C328.996 296.423 332.924 289.873 336.921 283.219C340.302 277.591 343.732 271.889 347.212 266.116C351.62 268.616 356.044 272.567 360.379 277.872C369.793 289.393 377.817 306.253 382.892 324.12C387.97 341.996 389.967 360.425 387.72 375.008C387.393 377.134 386.981 379.155 386.484 381.063L301.92 410.397L281.596 408.299L259.182 423.61L261.2 407.204C263.599 403.429 265.988 399.655 268.362 395.904L268.368 395.894L270.094 393.167C283.242 372.397 297.297 349.21 312.411 324.062C313.553 322.161 314.702 320.249 315.857 318.325L316.324 317.547C318.254 314.332 320.202 311.086 322.167 307.81L325.01 303.069L325.036 303.026L325.044 303.013L325.134 302.862ZM353.796 307.279C353.826 307.477 353.857 307.675 353.888 307.872L353.963 308.352C356.731 329.592 363.907 348.504 373.995 366.834L377.373 373.216L370.098 373.75C368.632 373.858 367.198 373.97 365.739 374.091C340.918 376.042 316.49 380.781 293.839 392.419C291.455 393.621 289.098 394.879 286.75 396.2C288.744 394.39 290.79 392.647 292.906 390.967C312.262 375.234 337.551 367.074 362.38 364.823C354.508 347.836 350.395 328.469 351.916 310.043C351.96 309.505 352.009 308.969 352.063 308.433C352.11 307.741 352.161 307.05 352.216 306.358C352.373 304.368 352.56 302.38 352.768 300.389C353.006 302.025 353.245 303.654 353.49 305.278C353.591 305.946 353.693 306.613 353.796 307.279Z" fill="url(#paint2_linear_1375_1012)"/>
<path d="M352.216 306.358C352.373 304.368 352.56 302.38 352.768 300.389C353.006 302.025 353.245 303.654 353.49 305.278C353.591 305.946 353.693 306.613 353.796 307.279C353.826 307.477 353.857 307.675 353.888 307.872L353.963 308.352C356.731 329.592 363.907 348.504 373.995 366.834L377.373 373.216L370.098 373.75C368.632 373.858 367.198 373.97 365.739 374.091C340.918 376.042 316.49 380.781 293.839 392.419C291.455 393.621 289.098 394.879 286.75 396.2C288.744 394.39 290.79 392.647 292.906 390.967C312.262 375.234 337.551 367.074 362.38 364.823C354.508 347.836 350.395 328.469 351.916 310.043C351.96 309.505 352.009 308.969 352.063 308.433C352.11 307.741 352.161 307.05 352.216 306.358Z" fill="#280844"/>
<path d="M302.195 306.268L301.958 306.678L298.72 312.277L293.599 321.134L293.455 321.383L291.247 325.201L290.649 326.235L287.609 331.493L283.239 339.049L278.871 346.603L259.246 380.541L257.059 384.324L254.872 388.107L250.514 395.642L248.973 398.308L250.946 408.002C251.606 406.977 252.264 405.954 252.918 404.934L253.329 404.294C255.054 401.605 256.755 398.941 258.425 396.319C260.047 393.771 261.638 391.263 263.19 388.81L263.528 388.277C273.962 371.781 284.945 353.805 296.578 334.532L296.788 334.185C298.558 331.253 300.343 328.29 302.143 325.298C303.204 323.536 304.27 321.763 305.341 319.981L305.629 319.502C307.463 316.451 309.313 313.37 311.179 310.26C312.201 308.557 313.227 306.846 314.259 305.126L314.409 304.876L314.484 304.75L317.979 298.924L319.984 295.581C326.279 285.085 332.756 274.29 339.428 263.222L340.564 261.338L341.666 259.51C342.397 258.298 343.131 257.083 343.867 255.865C348.902 247.529 354.046 239.044 359.306 230.419L354.279 227.521L349.368 224.69L344.358 233.354L336.358 247.189L331.744 255.168L330.624 257.105L328.382 260.982L324.218 268.183L323.899 268.735L312.666 288.16L307.269 297.493L302.195 306.268Z" fill="#861BE3"/>
<path d="M404.808 108.929C403.903 107.148 403.57 105.106 403.892 103.106C404.071 101.993 404.452 100.894 405.05 99.8602C407.681 95.3101 413.509 93.7507 418.066 96.3777C422.623 99.0048 424.184 104.823 421.553 109.373C420.954 110.408 420.191 111.288 419.314 112C417.74 113.277 415.803 114.01 413.806 114.117C412.409 114.192 410.983 113.961 409.632 113.396C409.261 113.241 408.896 113.061 408.538 112.855C408.18 112.648 407.84 112.422 407.519 112.178C406.354 111.292 405.441 110.175 404.808 108.929Z" fill="#861BE3"/>
<path d="M326.764 191.132L331.867 196.001L334.905 198.901L337.944 201.801L343.145 206.763L351.733 214.959L358.229 216.854L366.616 219.302L370.662 220.483L374.696 221.66L384.884 224.634L383.072 228.861C382.026 231.302 381.418 233.049 381.162 234.335C380.729 235.299 381.684 236.231 382.216 236.577C383.25 236.999 384.821 237.388 387.156 237.735C390.021 236.962 391.383 235.708 392.128 234.573C393.014 233.224 393.381 231.503 393.468 229.53C393.484 229.171 393.192 226.591 387.902 222.412C385.528 220.537 382.268 218.444 377.85 216.205C376.701 215.622 375.474 215.029 374.163 214.428C372.979 213.885 371.727 213.334 370.403 212.777C367.147 211.407 363.458 210 359.285 208.568L356.056 207.483L353.498 205.232C349.034 201.353 345.044 198.206 341.492 195.665C340.32 194.827 339.196 194.054 338.119 193.344C336.907 192.544 335.755 191.823 334.659 191.173C331.786 189.468 329.305 188.253 327.183 187.412C320.913 184.927 318.529 185.965 318.226 186.158C316.558 187.219 315.249 188.398 314.521 189.838C313.909 191.05 313.503 192.854 314.265 195.718C315.733 197.564 316.856 198.727 317.739 199.411C318.75 200.005 319.808 199.518 320.211 199.201C321.198 198.337 322.41 196.938 324.004 194.813L326.764 191.132Z" fill="#861BE3"/>
<path fill-rule="evenodd" clip-rule="evenodd" d="M312.885 270.998L313.328 270.711L313.617 270.212L317.813 262.955L318.756 261.325L320.096 259.008L329.815 242.201L336.344 230.912L341.295 222.35L342.299 220.615L332.36 214.886C332.001 215.542 331.642 216.197 331.284 216.851C329.741 219.665 328.206 222.463 326.677 225.242C321.932 233.869 317.254 242.33 312.653 250.626C311.442 252.81 310.236 254.982 309.036 257.143L307.687 259.57C306.52 261.671 305.358 263.76 304.201 265.839C302.874 268.225 301.554 270.596 300.241 272.953L298.276 276.483L298.268 276.497L298.257 276.517L296.264 280.094L293.602 284.872L292.676 286.533C291.545 288.564 290.42 290.583 289.301 292.592C288.584 293.879 287.869 295.162 287.158 296.44L285.473 299.466C283.893 302.304 282.328 305.118 280.777 307.909L279.818 309.634L279.754 309.749L279.683 309.878L278.839 311.397C278.278 312.407 277.719 313.414 277.162 314.418C275.591 317.251 274.035 320.059 272.495 322.843L272.485 322.861C271.811 324.08 271.14 325.294 270.472 326.503L270.206 326.986C269.648 327.997 269.092 329.005 268.538 330.009C266.309 334.054 264.115 338.046 261.96 341.985C259.026 347.348 256.163 352.613 253.376 357.78C252.058 360.223 250.757 362.643 249.474 365.042C249.102 365.736 248.732 366.429 248.363 367.119C247.664 368.43 246.97 369.734 246.281 371.032C245.8 371.937 245.322 372.839 244.847 373.738L244.606 374.195L244.215 374.935L244.222 374.973L246.517 386.244L247.599 384.373L249.366 381.317L251.553 377.534L253.741 373.751L264.073 355.885L268.442 348.331L272.811 340.775L280.542 327.407L280.935 326.726L283.539 322.223L283.601 322.116L288.601 313.47L292.249 307.163L294.347 303.534L297.224 298.559L300.778 292.414L302.261 289.848L309.168 277.906L313.106 271.095L312.885 270.998Z" fill="#44EB99"/>
<path fill-rule="evenodd" clip-rule="evenodd" d="M234.356 159.454C234.52 159.186 234.691 158.919 234.87 158.652C240.505 150.209 249.459 143.213 258.517 136.135C276.685 121.94 295.275 107.415 288.356 80.227C288.356 80.227 314.053 105.878 263.984 145.322C232.936 169.789 244.43 186.123 255.464 201.803C258.699 206.401 261.895 210.942 263.967 215.615C249.319 202.427 237.108 190.226 232.826 178.709C230.364 172.087 230.523 165.691 234.35 159.463L234.356 159.454ZM284.319 73.1386C287.515 71.3243 291.531 71.8655 294.13 74.4605L294.141 74.4708L294.152 74.4817C294.155 74.4854 294.159 74.4894 294.163 74.4935C294.167 74.4974 294.17 74.5015 294.174 74.5056L294.196 74.5273C294.207 74.5376 294.218 74.5485 294.229 74.56C294.264 74.5957 294.306 74.6408 294.351 74.6881L294.363 74.7007C294.465 74.808 294.589 74.9432 294.734 75.1055C295.023 75.4297 295.394 75.8639 295.816 76.4074C296.659 77.4921 297.726 79.0271 298.783 80.9902C300.901 84.924 303.007 90.6387 303.113 97.8638C303.265 108.315 299.266 120.582 287.682 134.151C293.445 131.139 299.144 128.772 303.902 127.01C307.748 125.587 311.067 124.526 313.44 123.817C314.627 123.462 315.582 123.195 316.252 123.013C316.587 122.922 316.851 122.852 317.038 122.803L317.361 122.721C321.309 121.737 325.38 123.805 326.908 127.57C328.436 131.336 326.955 135.65 323.435 137.687C310.12 145.393 301.125 151.52 295.234 156.566C289.255 161.687 287.194 165.092 286.548 167.169C286.042 168.795 286.14 170.405 287.461 173.091C288.614 175.434 290.285 177.816 292.547 180.964L295.01 184.395C299.74 191.038 301.032 197.984 299.659 204.529C298.36 210.721 294.847 215.787 291.399 219.537C291.06 219.905 290.717 220.266 290.371 220.619C295.233 220.044 299.798 219.418 303.663 218.85C307.106 218.344 309.974 217.886 311.976 217.556C312.305 217.502 312.61 217.452 312.89 217.405C313.035 216.222 313.441 215.06 314.113 214.008L314.12 213.999L314.125 213.99C314.127 213.987 314.129 213.984 314.132 213.981L314.138 213.971C314.147 213.958 314.156 213.943 314.165 213.929L314.187 213.895L314.211 213.859L314.226 213.836C314.271 213.769 314.323 213.694 314.382 213.61C314.5 213.443 314.648 213.241 314.827 213.014C315.182 212.564 315.672 211.991 316.304 211.377C317.537 210.177 319.503 208.627 322.23 207.661L322.254 207.653C324.106 207.003 325.969 206.511 327.826 206.17L328.812 204.366L327.656 203.263C326.969 204.03 326.285 204.729 325.593 205.334C323.937 206.782 321.875 208.047 319.355 208.192C316.78 208.34 314.571 207.275 312.736 205.855C310.935 204.462 309.164 202.473 307.332 200.107L306.882 199.528L306.664 198.829C305.107 193.851 305.478 189.632 307.227 186.167C308.908 182.839 311.623 180.69 313.837 179.282C317.415 177.005 322.963 176.966 330.195 179.832C332.746 180.843 335.604 182.25 338.802 184.145C341.584 180.325 346.276 178.521 350.779 179.294L397.414 112.398C394.911 107.293 394.916 101.076 397.977 95.7831C402.863 87.333 413.686 84.4371 422.15 89.3158C430.613 94.1946 433.513 105 428.626 113.45C425.565 118.744 420.175 121.857 414.494 122.245L379.852 195.878C383.043 199.426 383.934 204.624 381.889 209.107C386.557 211.497 390.182 213.815 392.97 216.018C399.073 220.838 401.813 225.655 401.627 229.887C401.512 232.505 401.005 235.926 398.958 239.044C396.828 242.289 393.354 244.72 388.258 245.862L387.542 246.023L386.815 245.924C383.847 245.522 381.237 244.985 379.128 244.125C376.978 243.249 374.949 241.871 373.79 239.57C372.656 237.318 372.723 234.903 373.151 232.748C373.33 231.847 373.593 230.906 373.915 229.927L369.885 228.751L368.452 231.096C362.646 240.603 356.972 249.955 351.425 259.136C356.986 262.349 362.132 267.119 366.707 272.718C377.022 285.341 385.469 303.305 390.75 321.896C396.028 340.479 398.273 360.144 395.792 376.248C393.323 392.27 385.9 405.934 370.84 409.963L235.561 446.153C218.25 471.025 200.961 491.965 184.87 501C184.733 488.862 188.816 473.692 195.31 456.921L157.436 467.053L139.026 462.128C135.894 464.616 132.286 466.577 128.151 467.825C112.037 472.69 96.5588 464.123 85.4225 452.881C73.8463 441.195 64.0712 424.056 58.1077 404.366C56.0943 397.719 54.6039 391.073 53.6342 384.564C47.8286 383.724 42.3202 382.712 37.2414 381.522C28.3904 379.448 20.0176 376.649 13.5628 372.76C7.475 369.091 3.96231e-05 362.464 0 352.032V81.3684C0 78.0286 0.880997 74.7476 2.55357 71.8552L14.381 51.4007C12.3316 48.9188 10.4271 45.3586 10.4271 40.8154C10.4271 35.4325 13.1006 31.4296 15.521 28.965C17.9006 26.5422 20.7791 24.7933 23.4077 23.4984C28.7124 20.8852 35.5963 18.8733 43.0998 17.3098C46.5078 16.5997 50.1787 15.9551 54.0734 15.3823C56.2589 9.59483 61.0473 4.74982 67.8818 2.92146L76.2058 0.694467L76.8678 0.529897C83.4987 -1.00987 90.4665 0.853915 95.438 5.4975L95.9285 5.9713L102.246 12.278C115.967 12.3231 128.99 13.0814 140.482 14.419C140.661 14.4399 140.84 14.4609 141.018 14.482L141.352 14.5218C142.694 14.6825 144.014 14.851 145.311 15.0274C150.145 15.6845 154.662 16.4491 158.793 17.3098C166.297 18.8733 173.181 20.8852 178.486 23.4984C181.114 24.7933 183.993 26.5422 186.372 28.965C188.793 31.4296 191.466 35.4325 191.466 40.8154C191.466 45.1592 189.725 48.6045 187.781 51.0678L199.802 71.8552C201.474 74.7476 202.355 78.0286 202.355 81.3684V214.015C210.335 211.052 217.495 209.501 223.137 208.7C227.002 208.151 230.169 207.952 232.421 207.893C233.547 207.864 234.448 207.869 235.094 207.884C235.417 207.891 235.677 207.902 235.87 207.91C235.967 207.915 236.047 207.919 236.11 207.922C236.141 207.924 236.169 207.925 236.192 207.926L236.248 207.93C240.277 208.202 243.502 211.373 243.837 215.392C244.125 218.856 242.188 222.05 239.131 223.462C245.604 223.504 252.903 223.346 260.493 222.995C259.78 222.661 259.107 222.219 258.497 221.67C246.854 211.188 235.824 200.547 229.335 189.96C226.034 184.573 223.601 178.724 223.11 172.52C222.605 166.127 224.211 159.917 228.073 154.131L228.543 153.438C233.462 146.319 240.168 140.365 246.685 135.088C249.121 133.117 251.495 131.263 253.799 129.463C258.203 126.025 262.381 122.763 266.371 119.157C272.277 113.82 276.741 108.581 279.278 102.819C281.716 97.2819 282.605 90.7416 280.44 82.235C279.535 78.6773 281.123 74.9534 284.319 73.1386ZM231.153 271.08C231.153 271.08 229.824 271.851 229.016 272.913C228.291 273.866 227.985 275.053 229.434 276.126C230.678 277.047 233.212 277.885 237.879 278.42L241.447 278.808C258.765 280.595 268.832 280.077 289.058 276.259L286.52 280.813L283.722 285.835L281.825 289.24C239.042 297.649 198.475 280.192 231.153 271.08ZM302.096 306.278L302.195 306.268L307.269 297.493L312.666 288.16L323.899 268.735L324.218 268.183L328.382 260.982L330.624 257.105L331.744 255.168L336.358 247.189L344.358 233.354L349.368 224.69L354.279 227.521L359.306 230.419C354.046 239.044 348.902 247.529 343.867 255.865C343.131 257.083 342.397 258.298 341.666 259.51L340.564 261.338L339.428 263.222C332.756 274.29 326.279 285.085 319.984 295.581L317.979 298.924L314.484 304.75L314.409 304.876L314.259 305.126C313.227 306.846 312.201 308.557 311.179 310.26C309.313 313.37 307.463 316.451 305.629 319.502L305.341 319.981C304.27 321.763 303.204 323.536 302.143 325.298C300.343 328.29 298.558 331.253 296.788 334.185L296.578 334.532C284.945 353.805 273.962 371.781 263.528 388.277L263.19 388.81C261.638 391.263 260.047 393.771 258.425 396.319C256.755 398.941 255.054 401.605 253.329 404.294L252.918 404.934C252.264 405.954 251.606 406.977 250.946 408.002L248.973 398.308L250.514 395.642L254.872 388.107L257.059 384.324L259.246 380.541L278.871 346.603L283.239 339.049L287.609 331.493L290.649 326.235L291.247 325.201L293.455 321.383L293.599 321.134L298.72 312.277L301.958 306.678L302.096 306.278ZM202.355 304.959C219.385 308.289 245.945 309.199 271.207 308.328C269.979 310.541 268.759 312.739 267.55 314.923C248.051 315.692 225.885 315.046 202.355 312.245V304.959ZM203.51 291.338C203.17 291.411 202.782 291.502 202.355 291.609V289.149C206.583 288.735 210.136 289.044 212.041 290.383C212.041 290.383 208.938 290.164 203.51 291.338ZM271.977 224.266C271.977 224.266 272.894 223.515 274.096 222.178C277.767 218.096 284.097 208.551 275.111 198.228C234.673 151.733 319.339 130.632 319.339 130.632C267.717 160.507 274.626 170.083 286.704 186.823C287.246 187.575 287.798 188.34 288.356 189.123C299.158 204.295 283.308 217.095 275.684 222.058C273.49 223.486 271.977 224.266 271.977 224.266ZM316.516 225.057C316.516 225.057 316.466 225.079 316.372 225.12C315.383 225.551 309.542 228.143 305.212 231.094C284.131 236.626 253.978 238.415 230.13 237.531C226.838 237.409 223.666 237.236 220.655 237.014C213.452 236.486 207.167 235.681 202.355 234.64V222.766C221.188 215.09 235.698 216.066 235.698 216.066C235.698 216.066 215.407 220.875 210.897 225.205C210.084 225.985 209.783 226.75 210.207 227.468C210.931 228.696 213.771 229.787 219.781 230.588C229.876 231.937 248.231 231.924 267.108 230.814C269.762 230.658 272.436 230.479 275.09 230.281C276.173 230.2 277.255 230.115 278.332 230.027C278.634 230.002 278.935 229.977 279.236 229.952C296.751 228.478 314.333 225.44 316.329 225.09C316.453 225.069 316.516 225.057 316.516 225.057ZM177.475 58.6127L177.589 58.547L177.867 58.3851C179.006 57.7223 180.186 57.0227 181.374 56.295L181.485 56.4857L192.73 75.9323C193.686 77.585 194.188 79.46 194.188 81.3684V217.444V226.738V231.879V240.822V282.24V290.62V294.321V302.934V311.193V319.424V333.225L190.105 331.045L186.021 328.865V318.232V309.978V293.195V284.528V235.301V223.482V81.3684C186.021 80.8914 185.896 80.4225 185.657 80.0093L174.102 60.0282C175.279 59.578 176.406 59.1065 177.475 58.6127ZM39.0122 224.963L89.7019 137.306L73.3383 198.462H100.591L49.9018 286.119L66.2473 224.963H39.0122ZM123.406 198.462V207.969H132.941V216.123H123.406V225.643H115.239V216.123H105.718V207.969H115.239V198.462H123.406ZM156.068 198.462V207.969H165.603V216.123H156.068V225.643H147.901V216.123H138.379V207.969H147.901V198.462H156.068ZM313.328 270.711L313.106 271.095L309.168 277.906L302.261 289.848L300.778 292.414L297.224 298.559L294.347 303.534L292.249 307.163L288.601 313.47L283.601 322.116L283.539 322.223L280.935 326.726L280.542 327.407L272.811 340.775L268.442 348.331L264.073 355.885L253.741 373.751L251.553 377.534L249.366 381.317L247.599 384.373L246.517 386.244L244.222 374.973L244.215 374.935L244.606 374.195L244.847 373.738C245.322 372.839 245.8 371.937 246.281 371.032C246.97 369.734 247.664 368.43 248.363 367.119C248.732 366.429 249.102 365.736 249.474 365.042C250.757 362.643 252.058 360.223 253.376 357.78C256.163 352.613 259.026 347.348 261.96 341.985C264.115 338.046 266.309 334.054 268.538 330.009C269.092 329.005 269.648 327.997 270.206 326.986L270.472 326.503C271.14 325.294 271.811 324.08 272.485 322.861L272.495 322.843C274.035 320.059 275.591 317.251 277.162 314.418C277.719 313.414 278.278 312.407 278.839 311.397L279.683 309.878L279.754 309.749L279.818 309.634L280.777 307.909C282.328 305.118 283.893 302.304 285.473 299.466L287.158 296.44C287.869 295.162 288.584 293.879 289.301 292.592C290.42 290.583 291.545 288.564 292.676 286.533L293.602 284.872L296.264 280.094L298.257 276.517L298.268 276.497L298.276 276.483L300.241 272.953C301.554 270.596 302.874 268.225 304.201 265.839C305.358 263.76 306.52 261.671 307.687 259.57L309.036 257.143C310.236 254.982 311.442 252.81 312.653 250.626C317.254 242.33 321.932 233.869 326.677 225.242C328.206 222.463 329.741 219.665 331.284 216.851C331.642 216.197 332.001 215.542 332.36 214.886L342.299 220.615L341.295 222.35L336.344 230.912L329.815 242.201L320.096 259.008L318.756 261.325L317.813 262.955L313.617 270.212L313.328 270.711ZM250.2 426.593L250.09 426.602L220.564 428.87L184.866 441.409L163.437 431.535L162.899 437.269C162.515 441.35 160.199 446.294 157.771 450.635C157.012 451.992 156.356 453.098 155.76 454.103L155.755 454.112C155.374 454.755 155.017 455.356 154.673 455.956C154.376 456.474 154.042 457.073 153.785 457.634L145.516 455.422C150.631 448.653 153.781 440.174 155.427 431.746C158.578 415.614 157.203 395.939 151.239 376.249C151.208 376.148 151.178 376.046 151.147 375.945C150.743 374.624 150.323 373.315 149.886 372.018C149.442 370.701 148.982 369.397 148.505 368.107C147.524 365.455 146.474 362.861 145.36 360.334C139.645 347.366 132.251 336.14 123.924 327.734C118.946 322.709 113.1 318.218 106.718 315.222L116.36 309.223H131.911L140.228 313.663L140.01 313.876L173.082 353.39L178.48 359.84L181.156 363.037L181.527 363.48L184.259 364.923L185.705 365.066L196.847 366.164L232.657 369.695L233.703 401.559L250.015 426.312L250.2 426.593ZM345.667 188.622C350 191.684 354.835 195.517 360.224 200.274C365.631 202.082 370.36 203.88 374.49 205.651C375.292 203.78 374.584 201.563 372.775 200.52L350.743 187.821C349.042 186.84 346.93 187.22 345.667 188.622ZM406.158 120.781L373.01 191.24L358.308 182.766L402.85 118.874C403.36 119.246 403.895 119.594 404.454 119.916C405.013 120.238 405.581 120.526 406.158 120.781ZM69.9954 10.7981C67.7151 11.4082 65.8146 12.5778 64.351 14.093C62.116 16.4071 60.9002 19.5273 60.9083 22.6916C60.9117 24.0441 61.1388 25.4047 61.6054 26.7139C62.0893 28.0716 62.831 29.3741 63.8481 30.5548C64.0553 30.7952 64.2739 31.0307 64.5041 31.2605L77.3755 44.112C81.2784 44.3788 85.3391 44.5821 89.5281 44.7142L84.6734 39.8672L102.108 35.2035L109.836 42.9184C110.378 43.4598 110.727 44.0948 110.902 44.7573C113.704 44.6805 116.451 44.572 119.134 44.4339C118.851 41.8237 117.714 39.2539 115.61 37.1531L107.078 28.634L102.95 24.5123L98.8667 20.4356L90.8253 12.4066L90.1541 11.7364C87.0593 8.64665 82.5482 7.44038 78.3207 8.57114L69.9954 10.7981ZM113.643 20.6411C114.89 22.1148 116.325 23.5651 117.685 24.8808C118.316 25.4915 118.932 26.0745 119.505 26.616L119.578 26.6854C120.437 27.4978 121.199 28.2185 121.771 28.8086C121.903 28.9448 122.024 29.074 122.135 29.1957C129.928 29.6569 137.199 30.3651 143.738 31.2733C145.918 31.576 148.017 31.9009 150.027 32.2463C151.918 32.5714 153.73 32.9145 155.457 33.2744C162.214 34.6823 167.46 36.3047 170.974 37.986L171.09 38.0417L171.193 38.0919L171.258 38.1239C173.022 38.9926 174.112 39.775 174.709 40.3827C174.896 40.573 175.003 40.7188 175.067 40.8154C175.003 40.912 174.896 41.0578 174.709 41.248C174.112 41.8557 173.022 42.6381 171.258 43.5069C167.746 45.2372 162.398 46.91 155.457 48.3564C149.192 49.6618 141.804 50.7478 133.602 51.5449C131.249 51.7736 128.829 51.9786 126.348 52.1581C123.343 52.3756 120.249 52.5559 117.081 52.6958C111.885 52.9254 106.487 53.0466 100.947 53.0466C95.8352 53.0466 90.846 52.9434 86.024 52.7472C81.7931 52.5751 77.6909 52.3313 73.7478 52.0228C71.4403 51.8422 69.1873 51.6394 66.9949 51.4158C59.3102 50.6322 52.3698 49.5927 46.4363 48.3564C39.495 46.91 34.1476 45.2372 30.635 43.5069C28.8715 42.6381 27.7811 41.8557 27.1842 41.248C26.997 41.0574 26.8891 40.912 26.8253 40.8154C26.8891 40.7188 26.997 40.5734 27.1842 40.3827C27.7716 39.7847 28.8369 39.0175 30.5513 38.1653L30.635 38.1239C34.1476 36.3935 39.495 34.7207 46.4363 33.2744C46.7336 33.2124 47.0334 33.151 47.3357 33.09C49.3663 32.6808 51.5095 32.2945 53.7552 31.9326L51.7553 28.1298L49.7609 24.3372C48.0346 24.641 46.3687 24.9592 44.7681 25.2928C37.5458 26.7976 31.4306 28.6394 27.022 30.8111C24.8256 31.8932 22.8409 33.1591 21.3526 34.6745C19.8507 36.2038 18.5943 38.2705 18.5943 40.8154C18.5943 41.9641 18.8503 43.0154 19.2693 43.9638C19.7786 45.1165 20.5287 46.1172 21.3526 46.9562C22.3272 47.9486 23.5147 48.834 24.8351 49.6308C25.5311 50.0508 26.2639 50.4461 27.022 50.8196C27.6216 51.115 28.2528 51.4042 28.914 51.6874C29.9732 52.141 31.1096 52.5788 32.317 53.0009C35.8973 54.2527 40.1016 55.3657 44.7681 56.338C46.627 56.7253 48.5737 57.0932 50.6011 57.4403C54.3977 58.0903 58.477 58.6673 62.792 59.1622C68.9262 59.8658 75.5367 60.4036 82.4887 60.7497C84.3701 60.8434 86.2765 60.923 88.2053 60.9881C92.3577 61.1281 96.6137 61.2007 100.947 61.2007C104.543 61.2007 108.087 61.1507 111.563 61.0536C114.758 60.9643 117.895 60.8352 120.963 60.6686C127.346 60.322 133.427 59.813 139.101 59.1622C143.125 58.7007 146.944 58.1678 150.52 57.5709C152.826 57.1859 155.031 56.7743 157.125 56.338C161.959 55.3307 166.298 54.1725 169.96 52.8653C171.153 52.4398 172.273 51.9984 173.316 51.5413C173.856 51.305 174.374 51.0644 174.871 50.8196C175.754 50.3846 176.603 49.9198 177.399 49.4211C178.583 48.6793 179.651 47.8624 180.541 46.9562C181.449 46.0311 182.268 44.9094 182.773 43.6041C183.103 42.7516 183.299 41.8208 183.299 40.8154C183.299 38.2705 182.042 36.2038 180.541 34.6745C179.052 33.1591 177.068 31.8932 174.871 30.8111C170.463 28.6394 164.347 26.7976 157.125 25.2928C154.826 24.8136 152.392 24.3642 149.837 23.9471C147.73 23.6031 145.54 23.2811 143.276 22.9825L142.952 22.9401C141.925 22.806 140.882 22.6768 139.824 22.5525L139.554 22.5209C139.352 22.4973 139.148 22.4739 138.945 22.4506C136.251 22.1432 133.465 21.8678 130.599 21.6265C129.829 21.5616 129.053 21.4992 128.271 21.4393C126.511 21.3044 124.723 21.1823 122.909 21.0734C119.888 20.8919 116.795 20.7471 113.643 20.6411ZM23.4077 58.1323C23.7226 58.2875 24.0431 58.4405 24.369 58.5914C25.5667 59.1462 26.8369 59.6728 28.1697 60.1727L16.6986 80.0093C16.4598 80.4225 16.3343 80.8914 16.3343 81.3684V352.032C16.3344 353.764 17.5478 356.113 22.0024 358.798C26.3351 361.409 32.8086 363.731 40.9741 365.645C44.4978 366.47 48.2858 367.208 52.2824 367.858C52.2955 369.229 52.3343 370.612 52.3987 372.006C52.4624 373.386 52.5513 374.776 52.6652 376.175C47.8688 375.435 43.3214 374.571 39.1078 373.584C30.5996 371.59 23.177 369.029 17.7833 365.779C12.5119 362.602 8.16721 358.114 8.16717 352.032V81.3684C8.16717 79.4599 8.67097 77.5851 9.62673 75.9323L20.7508 56.6942C21.6457 57.2283 22.5403 57.705 23.4077 58.1323ZM205.293 319.663C220.397 322.148 241.13 323.529 263.012 323.128L262.954 323.233C262.559 323.949 262.165 324.663 261.772 325.375L260.422 326.983C253.392 326.899 246.584 326.641 240.258 326.237C221.376 325.029 212.306 322.644 208.245 321.103C206.01 320.255 205.293 319.663 205.293 319.663ZM302.689 244.642C302.686 244.639 302.683 244.636 302.68 244.633C302.515 244.468 302.344 244.311 302.168 244.163C302.148 244.146 302.129 244.13 302.109 244.114C302.079 244.089 302.048 244.064 302.018 244.04L301.976 244.007C301.847 243.905 301.716 243.807 301.582 243.713C301.524 243.673 301.465 243.633 301.405 243.594C301.322 243.538 301.237 243.485 301.152 243.433C300.969 243.322 300.782 243.218 300.591 243.121C300.475 243.062 300.357 243.006 300.237 242.953C300.107 242.895 299.976 242.84 299.843 242.789C298.59 242.306 297.223 242.133 295.862 242.308L295.358 242.389C269.495 247.358 254.077 247.528 235.722 245.842C259.021 246.271 286.925 244.324 307.288 238.98C308.19 238.743 309.044 238.354 309.815 237.829C310.115 237.624 310.429 237.419 310.752 237.215C308.98 240.419 307.217 243.6 305.465 246.759C305.096 246.522 304.753 246.287 304.44 246.061C303.79 245.593 303.301 245.187 302.999 244.922C302.942 244.872 302.892 244.828 302.849 244.789L302.794 244.739L302.747 244.696L302.735 244.685L302.723 244.675C302.718 244.671 302.714 244.668 302.711 244.665C302.709 244.663 302.7 244.652 302.699 244.65C302.701 244.653 302.697 244.648 302.699 244.65L302.689 244.642ZM225.237 244.061C225.237 244.061 224.528 244.585 223.757 245.39C221.546 247.699 218.824 252.323 230.826 253.562L234.667 253.938L234.704 253.942C236.422 254.101 238.116 254.244 239.797 254.37L240.067 254.39C245.41 254.784 250.616 254.996 256 254.957C267.711 254.871 280.264 253.593 296.902 250.396C296.902 250.396 298.592 252.106 301.5 253.902C300.592 255.536 299.687 257.163 298.786 258.785C244.355 271.784 188.806 258.164 221.859 245.272C222.897 244.868 224.022 244.464 225.237 244.061ZM204.67 454.417L204.706 454.334L207.586 453.563L207.536 453.65L198.702 468.927C200.295 464.649 202.322 459.753 204.67 454.417ZM218.698 450.664L218.748 450.577L223.439 449.322L223.376 449.413C216.891 458.693 210.849 466.885 205.778 473.006L218.698 450.664ZM147.41 430.184C145.625 439.325 142.135 447.461 136.803 453.091C135.667 454.29 134.448 455.376 133.143 456.333C131.578 457.482 129.891 458.445 128.08 459.2C127.337 459.509 126.573 459.783 125.787 460.02C114.002 463.578 101.549 457.564 91.2291 447.146C80.7627 436.58 71.5825 420.684 65.9253 402.006C64.2548 396.491 62.9747 391.008 62.0734 385.643C61.6003 382.827 61.2316 380.044 60.9656 377.306C60.8301 375.912 60.7212 374.529 60.6387 373.16C60.555 371.769 60.4985 370.392 60.469 369.03C60.4083 366.226 60.4621 363.488 60.6285 360.831C60.8559 357.2 61.2935 353.72 61.9361 350.43C64.5718 336.935 70.9235 325.63 81.4335 321.347C82.1241 321.066 82.8326 320.815 83.5593 320.595C86.3319 319.758 89.1415 319.451 91.9517 319.606C93.9771 319.718 96.0027 320.07 98.015 320.637C105.078 322.628 111.975 327.268 118.117 333.468C125.191 340.608 131.677 350.184 136.885 361.407C138.058 363.936 139.167 366.548 140.203 369.236C140.702 370.53 141.184 371.841 141.648 373.168C142.102 374.468 142.54 375.784 142.959 377.114C143.116 377.611 143.27 378.109 143.421 378.609C149.079 397.288 150.259 415.599 147.41 430.184ZM43.0998 64.3209C40.341 63.7461 37.6659 63.1106 35.1223 62.4069L23.6386 82.2656C23.8866 82.5132 24.1747 82.7557 24.5015 82.9932C41.4225 95.2877 161.939 93.9736 177.854 82.9723C178.189 82.741 178.477 82.5054 178.717 82.2656L168.279 61.9765C166.519 62.4936 164.689 62.9759 162.806 63.4259C161.493 63.7396 160.153 64.0376 158.793 64.3209C149.28 66.3032 137.717 67.7753 124.958 68.5998C117.321 69.0934 109.257 69.3549 100.947 69.3549C91.9481 69.3549 83.237 69.0482 75.0457 68.4724C63.0347 67.628 52.1416 66.2049 43.0998 64.3209ZM336.921 283.219C332.924 289.873 328.996 296.423 325.134 302.862L325.044 303.013L325.036 303.026L325.01 303.069L322.167 307.81C320.202 311.086 318.254 314.332 316.324 317.547L315.857 318.325C314.702 320.249 313.553 322.161 312.411 324.062C297.297 349.21 283.242 372.397 270.094 393.167L268.368 395.894L268.362 395.904C265.988 399.655 263.599 403.429 261.2 407.204L259.182 423.61L281.596 408.299L301.92 410.397L386.484 381.063C386.981 379.155 387.393 377.134 387.72 375.008C389.967 360.425 387.97 341.996 382.892 324.12C377.817 306.253 369.793 289.393 360.379 277.872C356.044 272.567 351.62 268.616 347.212 266.116C343.732 271.889 340.302 277.591 336.921 283.219ZM403.892 103.106C403.57 105.106 403.903 107.148 404.808 108.929C405.441 110.175 406.354 111.292 407.519 112.178C407.84 112.422 408.18 112.648 408.538 112.855C408.896 113.061 409.261 113.241 409.632 113.396C410.983 113.961 412.409 114.192 413.806 114.117C415.803 114.01 417.74 113.277 419.314 112C420.191 111.288 420.954 110.408 421.553 109.373C424.184 104.823 422.623 99.0048 418.066 96.3777C413.509 93.7507 407.681 95.3101 405.05 99.8602C404.452 100.894 404.071 101.993 403.892 103.106ZM331.867 196.001L326.764 191.132L324.004 194.813C322.41 196.938 321.198 198.337 320.211 199.201C319.808 199.518 318.75 200.005 317.739 199.411C316.856 198.727 315.733 197.564 314.265 195.718C313.503 192.854 313.909 191.05 314.521 189.838C315.249 188.398 316.558 187.219 318.226 186.158C318.529 185.965 320.913 184.927 327.183 187.412C329.305 188.253 331.786 189.468 334.659 191.173C335.755 191.823 336.907 192.544 338.119 193.344C339.196 194.054 340.32 194.827 341.492 195.665C345.044 198.206 349.034 201.353 353.498 205.232L356.056 207.483L359.285 208.568C363.458 210 367.147 211.407 370.403 212.777C371.727 213.334 372.979 213.885 374.163 214.428C375.474 215.029 376.701 215.622 377.85 216.205C382.268 218.444 385.528 220.537 387.902 222.412C393.192 226.591 393.484 229.171 393.468 229.53C393.381 231.503 393.014 233.224 392.128 234.573C391.383 235.708 390.021 236.962 387.156 237.735C384.821 237.388 383.25 236.999 382.216 236.577C381.684 236.231 380.729 235.299 381.162 234.335C381.418 233.049 382.026 231.302 383.072 228.861L384.884 224.634L374.696 221.66L370.662 220.483L366.616 219.302L358.229 216.854L351.733 214.959L343.145 206.763L337.944 201.801L334.905 198.901L331.867 196.001ZM252.571 336.333L236.301 355.708L202.355 337.585V328.925C202.42 328.957 202.485 328.988 202.552 329.02C204.125 329.766 206.28 330.591 209.247 331.414C215.155 333.052 224.591 334.767 239.65 335.731C243.776 335.995 248.106 336.198 252.571 336.333ZM276.747 298.362L275.843 299.985C270.527 300.22 265.09 300.376 259.634 300.444C245.505 300.622 231.583 300.209 219.771 299.115C217.529 298.907 215.394 298.676 213.372 298.426C216.253 297.951 218.723 295.956 219.735 293.117C219.878 292.716 219.988 292.31 220.065 291.902C220.155 291.953 220.244 292.003 220.332 292.052C223.726 293.944 227.922 295.462 232.497 296.624C243.979 299.541 259.95 300.728 276.747 298.362ZM206.883 280.847C205.422 280.791 203.9 280.837 202.355 280.962V242.962C204.157 243.312 206.078 243.627 208.096 243.91C205.153 246.737 202.396 251.359 204.435 257.029C206.185 261.897 210.714 264.568 213.851 266.022C215.177 266.636 216.621 267.197 218.161 267.708C217.412 268.189 216.712 268.699 216.065 269.242C214.397 270.643 212.748 272.551 211.821 275.067C211.046 277.17 210.913 279.34 211.33 281.401C209.74 281.039 208.2 280.898 206.883 280.847ZM253.337 169.791C254.298 167.401 255.932 164.653 258.581 161.533C257.98 162.96 257.47 164.439 257.066 165.971C253.917 177.883 257.677 190.619 268.947 203.576C270.915 205.837 271.414 207.585 271.516 208.776C271.595 209.694 271.467 210.653 271.137 211.655C268.723 206.443 265.215 201.467 262.188 197.173L261.159 195.711C257.547 190.558 254.716 186.231 253.2 181.91C251.806 177.935 251.592 174.133 253.337 169.791Z" fill="#280844"/>
<path d="M123.406 207.969V198.462H115.239V207.969H105.718V216.123H115.239V225.643H123.406V216.123H132.941V207.969H123.406Z" fill="#44EB99"/>
<path d="M89.7019 137.306L39.0122 224.963H66.2473L49.9018 286.119L100.591 198.462H73.3383L89.7019 137.306Z" fill="#44EB99"/>
<path d="M117.685 24.8808C116.325 23.5651 114.89 22.1148 113.643 20.6411C116.795 20.7471 119.888 20.8919 122.909 21.0734C124.723 21.1823 126.511 21.3044 128.271 21.4393C129.053 21.4992 129.829 21.5616 130.599 21.6265C133.465 21.8678 136.251 22.1432 138.945 22.4506C139.148 22.4739 139.352 22.4973 139.554 22.5209L139.824 22.5525C140.882 22.6768 141.925 22.806 142.952 22.9401L143.276 22.9825C145.54 23.2811 147.73 23.6031 149.837 23.9471C152.392 24.3642 154.826 24.8136 157.125 25.2928C164.347 26.7976 170.463 28.6394 174.871 30.8111C177.068 31.8932 179.052 33.1591 180.541 34.6745C182.042 36.2038 183.299 38.2705 183.299 40.8154C183.299 41.8208 183.103 42.7516 182.773 43.6041C182.268 44.9094 181.449 46.0311 180.541 46.9562C179.651 47.8624 178.583 48.6793 177.399 49.4211C176.603 49.9198 175.754 50.3846 174.871 50.8196C174.374 51.0644 173.856 51.305 173.316 51.5413C172.273 51.9984 171.153 52.4398 169.96 52.8653C166.298 54.1725 161.959 55.3307 157.125 56.338C155.031 56.7743 152.826 57.1859 150.52 57.5709C146.944 58.1678 143.125 58.7007 139.101 59.1622C133.427 59.813 127.346 60.322 120.963 60.6686C117.895 60.8352 114.758 60.9643 111.563 61.0536C108.087 61.1507 104.543 61.2007 100.947 61.2007C96.6137 61.2007 92.3577 61.1281 88.2053 60.9881C86.2765 60.923 84.3701 60.8434 82.4887 60.7497C75.5367 60.4036 68.9262 59.8658 62.792 59.1622C58.477 58.6673 54.3977 58.0903 50.6011 57.4403C48.5737 57.0932 46.627 56.7253 44.7681 56.338C40.1016 55.3657 35.8973 54.2527 32.317 53.0009C31.1096 52.5788 29.9732 52.141 28.914 51.6874C28.2528 51.4042 27.6216 51.115 27.022 50.8196C26.2639 50.4461 25.5311 50.0508 24.8351 49.6308C23.5147 48.834 22.3272 47.9486 21.3526 46.9562C20.5287 46.1172 19.7786 45.1165 19.2693 43.9638C18.8503 43.0154 18.5943 41.9641 18.5943 40.8154C18.5943 38.2705 19.8507 36.2038 21.3526 34.6745C22.8409 33.1591 24.8256 31.8932 27.022 30.8111C31.4306 28.6394 37.5458 26.7976 44.7681 25.2928C46.3687 24.9592 48.0346 24.641 49.7609 24.3372L51.7553 28.1298L53.7552 31.9326C51.5095 32.2945 49.3663 32.6808 47.3357 33.09C47.0334 33.151 46.7336 33.2124 46.4363 33.2744C39.495 34.7207 34.1476 36.3935 30.635 38.1239L30.5513 38.1653C28.8369 39.0175 27.7716 39.7847 27.1842 40.3827C26.997 40.5734 26.8891 40.7188 26.8253 40.8154C26.8891 40.912 26.997 41.0574 27.1842 41.248C27.7811 41.8557 28.8715 42.6381 30.635 43.5069C34.1476 45.2372 39.495 46.91 46.4363 48.3564C52.3698 49.5927 59.3102 50.6322 66.9949 51.4158C69.1873 51.6394 71.4403 51.8422 73.7478 52.0228C77.6909 52.3313 81.7931 52.5751 86.024 52.7472C90.846 52.9434 95.8352 53.0466 100.947 53.0466C106.487 53.0466 111.885 52.9254 117.081 52.6958C120.249 52.5559 123.343 52.3756 126.348 52.1581C128.829 51.9786 131.249 51.7736 133.602 51.5449C141.804 50.7478 149.192 49.6618 155.457 48.3564C162.398 46.91 167.746 45.2372 171.258 43.5069C173.022 42.6381 174.112 41.8557 174.709 41.248C174.896 41.0578 175.003 40.912 175.067 40.8154C175.003 40.7188 174.896 40.573 174.709 40.3827C174.112 39.775 173.022 38.9926 171.258 38.1239L171.193 38.0919L171.09 38.0417L170.974 37.986C167.46 36.3047 162.214 34.6823 155.457 33.2744C153.73 32.9145 151.918 32.5714 150.027 32.2463C148.017 31.9009 145.918 31.576 143.738 31.2733C137.199 30.3651 129.928 29.6569 122.135 29.1957C122.024 29.074 121.903 28.9448 121.771 28.8086C121.199 28.2185 120.437 27.4978 119.578 26.6854L119.505 26.616C118.932 26.0745 118.316 25.4915 117.685 24.8808Z" fill="#861BE3"/>
<path fill-rule="evenodd" clip-rule="evenodd" d="M69.9954 10.7981C67.7151 11.4082 65.8146 12.5778 64.351 14.093C62.116 16.4071 60.9002 19.5273 60.9083 22.6916C60.9117 24.0441 61.1388 25.4047 61.6054 26.7139C62.0893 28.0716 62.831 29.3741 63.8481 30.5548C64.0553 30.7952 64.2739 31.0307 64.5041 31.2605L77.3755 44.112C81.2784 44.3788 85.3391 44.5821 89.5281 44.7142L84.6734 39.8672L102.108 35.2035L109.836 42.9184C110.378 43.4598 110.727 44.0948 110.902 44.7573C113.704 44.6805 116.451 44.572 119.134 44.4339C118.851 41.8237 117.714 39.2539 115.61 37.1531L107.078 28.634L102.95 24.5123L98.8667 20.4356L90.8253 12.4066L90.1541 11.7364C87.0593 8.64665 82.5482 7.44038 78.3207 8.57114L69.9954 10.7981ZM91.5119 24.6243L84.3783 17.503C83.3468 16.4732 81.8434 16.0698 80.4343 16.4466L72.1089 18.6736C69.0726 19.4859 68.0558 23.276 70.2785 25.4952L70.565 25.7813L78.0057 33.2101L95.4393 28.5451L91.5119 24.6243ZM177.589 58.547L177.475 58.6127C177.614 58.5489 177.751 58.4848 177.888 58.4203L177.867 58.3851L177.589 58.547Z" fill="#44EB99"/>
<path d="M156.068 207.969V198.462H147.901V207.969H138.379V216.123H147.901V225.643H156.068V216.123H165.603V207.969H156.068Z" fill="#44EB99"/>
<path fill-rule="evenodd" clip-rule="evenodd" d="M77.4352 379.888C77.0638 379.517 76.7225 379.132 76.4108 378.734C75.3849 377.425 74.6786 375.984 74.2695 374.494C73.8978 373.14 73.7714 371.746 73.8733 370.375C74.0688 367.745 75.1042 365.199 76.8603 363.181C78.373 361.443 80.4205 360.096 82.9265 359.426L85.169 358.826C87.2899 358.259 89.4822 358.279 91.5313 358.831C93.4661 359.353 95.2731 360.347 96.7716 361.767C96.8494 361.84 96.9263 361.915 97.0024 361.991L103.106 368.085L106.387 371.362L110.394 375.363L113.568 378.532C113.826 378.79 114.07 379.055 114.3 379.326C118.917 384.787 117.71 392.79 112.415 396.868C111.353 397.686 110.126 398.346 108.748 398.796C108.528 398.868 108.304 398.935 108.077 398.995L105.834 399.595C105.488 399.688 105.139 399.765 104.79 399.826C100.877 400.515 96.8419 399.265 94.0008 396.429L77.759 380.211L77.4352 379.888ZM93.9437 375.406L96.6572 374.68L97.8425 374.363L95.9404 372.464L94.8186 371.344L91.2266 367.758C90.1951 366.728 88.6917 366.325 87.2826 366.701L85.0401 367.301C83.2532 367.779 82.1657 369.289 82.0263 370.902C81.9289 372.03 82.295 373.21 83.2096 374.123L84.1786 375.09L86.4916 377.4L93.9437 375.406ZM103.119 381.393L104.512 381.02L107.794 384.297C109.948 386.448 109.059 390.074 106.238 391.035C106.148 391.066 106.057 391.094 105.963 391.119L103.721 391.719C103.219 391.853 102.705 391.888 102.204 391.831C101.3 391.729 100.441 391.326 99.7766 390.663L93.1594 384.057L99.1698 382.449L103.119 381.393Z" fill="#44EB99"/>
<defs>
<linearGradient id="paint0_linear_1375_1012" x1="39.9866" y1="78.6479" x2="438.867" y2="201.712" gradientUnits="userSpaceOnUse">
<stop stop-color="#861BE3"/>
<stop offset="1" stop-color="#4A0F7D"/>
</linearGradient>
<linearGradient id="paint1_linear_1375_1012" x1="39.9866" y1="78.6479" x2="438.867" y2="201.712" gradientUnits="userSpaceOnUse">
<stop stop-color="#861BE3"/>
<stop offset="1" stop-color="#4A0F7D"/>
</linearGradient>
<linearGradient id="paint2_linear_1375_1012" x1="39.9866" y1="78.6479" x2="438.867" y2="201.712" gradientUnits="userSpaceOnUse">
<stop stop-color="#861BE3"/>
<stop offset="1" stop-color="#4A0F7D"/>
</linearGradient>
</defs>
</svg>
