<svg width="636" height="644" viewBox="0 0 636 644" fill="none" xmlns="http://www.w3.org/2000/svg">
<path fill-rule="evenodd" clip-rule="evenodd" d="M292.82 325.086V196.098C292.82 183.815 302.651 173.859 314.777 173.859H433.333C471.765 173.859 497.004 137.164 497.004 121.597V69.335C497.004 59.5097 504.87 51.5436 514.568 51.5436H560.674C585.128 51.5436 614.943 27.0072 614.943 0.442749C614.955 0.442749 635.434 20.7877 635.438 20.7877C610.355 20.7877 582.631 52.0065 582.631 77.1189V122.709C582.631 132.535 574.769 140.501 565.067 140.501H514.568C513.748 140.501 512.939 140.443 512.146 140.332C486.633 140.004 461.878 184.48 461.878 203.882V325.086C461.878 337.368 452.047 347.325 439.922 347.325H314.777C314.28 347.325 313.784 347.312 313.296 347.28C313.323 347.309 313.339 347.325 313.339 347.325C288.256 347.325 260.532 378.543 260.532 403.656V449.246C260.532 459.071 252.67 467.038 242.967 467.038H192.469C191.649 467.038 190.84 466.98 190.046 466.869C164.534 466.541 139.779 511.017 139.779 530.419V621.105C139.779 633.387 129.948 643.344 117.823 643.344H22.688C10.5627 643.344 0.7312 633.387 0.731201 621.105L0.73121 522.635C0.731211 510.352 10.5627 500.396 22.688 500.396H111.234C149.666 500.396 174.904 463.701 174.904 448.134V395.872C174.904 386.046 182.771 378.08 192.469 378.08H238.575C266.077 378.08 292.82 352.852 292.82 325.086Z" fill="url(#paint0_linear_34_64)"/>
<defs>
<linearGradient id="paint0_linear_34_64" x1="16.2482" y1="632.663" x2="1002.98" y2="-298.513" gradientUnits="userSpaceOnUse">
<stop stop-color="#8432DC"/>
<stop offset="0.359375" stop-color="#7061CA"/>
<stop offset="0.684885" stop-color="#8432DC"/>
</linearGradient>
</defs>
</svg>
